<?xml version="1.0" encoding="utf-8"?>
<!-- Generator: Adobe Illustrator 19.2.1, SVG Export Plug-In . SVG Version: 6.00 Build 0)  -->
<!DOCTYPE svg PUBLIC "-//W3C//DTD SVG 1.1//EN" "http://www.w3.org/Graphics/SVG/1.1/DTD/svg11.dtd">
<svg version="1.1" id="Layer_1" xmlns="http://www.w3.org/2000/svg" xmlns:xlink="http://www.w3.org/1999/xlink" x="0px" y="0px"
	 viewBox="0 0 84.1 147.7" style="enable-background:new 0 0 84.1 147.7;" xml:space="preserve">
<style type="text/css">
	.st0{fill:#E11A2B;}
	.st1{fill-rule:evenodd;clip-rule:evenodd;fill:#E11A2B;}
</style>
<g>
	<path class="st0" d="M5.5,90.2c2.6-2.7,11-6.8,21.8-0.1c5.6,3.5,16.5,8.8,30.4,0c10.8-6.7,19.3-2.6,21.8,0.1l0,7.5
		c-2.6-2.7-6.2-4.2-10.4-4.2c0,0-5.2-0.3-10.9,3c-16.4,9.6-26.8,2.3-31.4,0c-6.9-3.4-10.9-3-10.9-3c-4.2,0-7.8,1.5-10.4,4.2
		L5.5,90.2L5.5,90.2z"/>
	<path class="st0" d="M5.5,100.6c2.6-2.7,11-7.7,21.8-0.9c5.6,3.5,16.5,8.8,30.4,0c10.8-6.8,19.3-1.9,21.8,0.8l0,8.2
		c-2.6-2.7-6.2-5.7-10.4-5.7c0,0-5.2-0.3-10.9,3c-16.4,9.6-26.8,2.3-31.4,0c-6.9-3.4-10.9-3-10.9-3c-4.2,0-7.8,3-10.4,5.8L5.5,100.6
		L5.5,100.6z"/>
	<path class="st1" d="M35.8,124.3v-4.2c0-1.2-0.4-1.5-1.7-1.5v7.1h0.3C35.4,125.8,35.8,125.4,35.8,124.3L35.8,124.3z M41,137
		c0,0-0.2,6.2,7.2,6.3c0.4,0,1.1,0,1.5-0.1v4.2c-0.7,0.1-1.4,0.2-2.2,0.2c-4.7,0-9.5-2.1-11.1-6.3c-0.7-1.9-0.6-4.4-0.6-4.4l0-5.5
		c0-1.5-0.5-2.2-1.7-2.2H34v12.1h-5.2v-26.1h6.1c4.2,0,6.1,1.4,6.1,4.7v2.8c0,2.7-1.3,4.2-4,4.4v0.1c3,0.2,4,1.4,4,4.4L41,137
		L41,137z"/>
	<path class="st1" d="M20.9,119.7c0-0.9,0.3-1.3,0.9-1.3c0.7,0,0.9,0.4,0.9,1.3v17c0,0.9-0.3,1.3-0.9,1.3c-0.7,0-0.9-0.4-0.9-1.3
		V119.7L20.9,119.7z M15.7,121.5v13.8c0,4.6,1.5,6.7,6.1,6.7c4.6,0,6.1-2.1,6.1-6.7v-13.8c0-4.6-1.5-6.7-6.1-6.7
		C17.2,114.7,15.7,116.9,15.7,121.5L15.7,121.5z"/>
	<polygon class="st0" points="5.5,141.4 10.7,141.4 10.7,128.7 15.1,128.7 15.1,125 10.7,125 10.7,118.9 15.2,118.9 15.2,115.3 
		5.5,115.3 5.5,141.4 	"/>
	<path class="st1" d="M47.1,119.7v5.2h1.8v-5.2c0-0.9-0.2-1.3-0.9-1.3C47.4,118.5,47.1,118.9,47.1,119.7L47.1,119.7z M41.9,121.5
		c0-4.6,1.5-6.7,6.1-6.7c4.6,0,6.1,2.2,6.1,6.7v7.2h-7v2.3v0.5v5.3c0,0.9,0.2,1.3,0.9,1.3c0.7,0,0.9-0.4,0.9-1.3v-5.3h5.2v3.7
		c0,4.6-1.5,6.7-6.1,6.7c-4.6,0-6.1-2.1-6.1-6.7V121.5L41.9,121.5z"/>
	<path class="st0" d="M55,120v2.4c0,0.1,0,0.3,0,0.4c0,1.2,0.1,2.4,1.3,3.8l4.7,5.3c0.6,0.7,0.9,1.2,0.9,2.1v2.8
		c0,0.9-0.2,1.3-0.9,1.3c-0.7,0-0.9-0.4-0.9-1.3v-5.3H55v4.9c0,3.7,2.1,5.6,6.1,5.6c3.9,0,6.1-1.9,6.1-5.2v-3c0-1.6,0-2.9-1.3-4.3
		l-5-5.5c-0.5-0.5-0.7-1.1-0.7-1.8v-2.3c0-0.9,0.3-1.3,0.9-1.3c0.7,0,0.9,0.4,0.9,1.3v4.6h5.2v-4.3c0-3.4-2.1-5.4-6.1-5.4
		C57.1,114.7,55,116.8,55,120L55,120z"/>
	<polygon class="st0" points="71,141.4 76.2,141.4 76.2,119 79.5,119 79.5,115.3 67.6,115.3 67.6,119 71,119 71,141.4 	"/>
	<path class="st0" d="M51,66.7c1.2,0.7,3.1,1.4,4.6,1.5c5,0.4,10.4-1.9,12.8-5.9c8.1,2.1,14.2-3.1,15.4-8.8c1-5-0.9-8.7-4.9-11.4
		c1.3-6.4-1.6-9.2-4.4-10.4c0.7-2.3-0.4-5.5-2.9-8c-1.4-1.4-3-2.3-4.6-2.8c1.6-6.1-0.5-12.1-7.4-13.9c-1.7-0.5-3.6-0.4-5.3,0
		C51.7,2.9,47,0,41.5,0c-5.4,0-10,2.8-12.6,7c-2.9-0.5-6.1,0.1-8.6,2.1c-3.8,3-5.1,8.1-3.4,12.4c-2.9,0.2-5.5,1.8-6.7,4.3
		c-1,2-0.9,4.3,0,6.4c-3,1.4-5,4.2-5,7.4c0,0.7,0.1,1.5,0.3,2.1C2.2,43.8,0,47.4,0,51.6c0,6.5,5.4,11.8,12.1,11.8
		c1.6,0,3.2-0.3,4.6-0.9c2,3.8,6,6.4,10.7,6.4c2.5,0,4.9-0.9,6.8-2.2v16c-11.7-6.5-17.1-6.3-18.9-6.3c-2.8-0.1-7.8,1.2-9.8,3.5v7.5
		c2-2.3,7.5-4,11.6-3.8c2.1,0.1,6.6,1,11.3,3.7c6.9,3.9,12.2,4.6,12.2,4.6l0-35.4c-2,2.5-5.7,4.2-10,4.2c-5.5,0-10.2-2.8-11.2-6.5
		c-0.7,0.8-1.6,1.4-2.7,1.8c-3.1,1.1-6.4-0.2-7.4-3c-1-2.8,0.7-5.9,3.8-7.1c0.4-0.1,0.7-0.2,1.1-0.3c-2-1.9-2.9-4.3-2-6.3
		c0.9-2,3.5-2.9,6.3-2.5c-1-1.1-1.5-2.4-1.5-3.9c0-3.6,3.4-6.6,7.6-6.6c0.3,0,0.6,0,0.9,0c-1.3-1.4-2.1-3.2-2.1-5.3
		c0-4.2,3.4-7.7,7.6-7.7c1.1,0,2.2,0.3,3.2,0.7C34.8,10.7,38,8,41.9,8c4,0,7.2,2.8,7.7,6.3c1.1-0.7,2.4-0.9,3.8-0.9
		c4.2,0,7.6,3.5,7.6,7.9c0,2-0.7,3.7-1.8,5.1c0.3,0,0.5,0,0.8,0c4.2,0,7.5,2.9,7.5,6.4c0,1.2-0.4,2.3-1,3.2c2.4,0,4.6,1.3,5.4,3.5
		c0.6,1.8,0.2,3.7-0.9,5.2c0.1,0,0.2,0,0.2,0c3.1,0.5,5.2,3.5,4.7,6.5c-0.5,3-3.5,5.1-6.6,4.5c-1.6-0.3-3-1.3-3.8-2.5
		c-0.7,3.9-5.3,7-11,7c-4,0-7.9-1.5-9.9-3.8l0,35.4c0,0,5.3-0.7,12.2-4.6c4.7-2.7,9.2-3.6,11.3-3.7c4.1-0.2,9.4,1.3,11.4,3.6v-7.5
		c-2-2.3-6.7-3.4-9.6-3.3c-1.8,0-7.3-0.2-19,6.3L51,66.7L51,66.7z"/>
</g>
</svg>
